<svg width="23" height="30" viewBox="0 0 23 30" fill="none" xmlns="http://www.w3.org/2000/svg">
<path d="M21.5691 7.79357H17.3108V6.37413C17.3108 4.86829 16.7126 3.42412 15.6478 2.35933C14.583 1.29454 13.1389 0.69635 11.633 0.69635C10.1272 0.69635 8.68301 1.29454 7.61823 2.35933C6.55344 3.42412 5.95524 4.86829 5.95524 6.37413V7.79357H1.69691C1.32045 7.79357 0.959409 7.94312 0.693212 8.20932C0.427014 8.47552 0.277466 8.83656 0.277466 9.21302V24.8269C0.277466 25.9563 0.72611 27.0394 1.5247 27.838C2.3233 28.6366 3.40642 29.0852 4.5358 29.0852H18.7302C19.8596 29.0852 20.9427 28.6366 21.7413 27.838C22.5399 27.0394 22.9886 25.9563 22.9886 24.8269V9.21302C22.9886 8.83656 22.839 8.47552 22.5728 8.20932C22.3066 7.94312 21.9456 7.79357 21.5691 7.79357ZM8.79413 6.37413C8.79413 5.62121 9.09323 4.89913 9.62562 4.36673C10.158 3.83434 10.8801 3.53524 11.633 3.53524C12.3859 3.53524 13.108 3.83434 13.6404 4.36673C14.1728 4.89913 14.4719 5.62121 14.4719 6.37413V7.79357H8.79413V6.37413ZM20.1497 24.8269C20.1497 25.2034 20.0001 25.5644 19.7339 25.8306C19.4677 26.0968 19.1067 26.2463 18.7302 26.2463H4.5358C4.15934 26.2463 3.7983 26.0968 3.5321 25.8306C3.2659 25.5644 3.11635 25.2034 3.11635 24.8269V10.6325H5.95524V12.0519C5.95524 12.4284 6.10479 12.7894 6.37099 13.0556C6.63719 13.3218 6.99823 13.4713 7.37469 13.4713C7.75115 13.4713 8.11219 13.3218 8.37839 13.0556C8.64458 12.7894 8.79413 12.4284 8.79413 12.0519V10.6325H14.4719V12.0519C14.4719 12.4284 14.6215 12.7894 14.8877 13.0556C15.1539 13.3218 15.5149 13.4713 15.8914 13.4713C16.2678 13.4713 16.6289 13.3218 16.8951 13.0556C17.1612 12.7894 17.3108 12.4284 17.3108 12.0519V10.6325H20.1497V24.8269Z" fill="white"/>
</svg>
